<?xml version="1.0" encoding="UTF-8" standalone="no"?>
<!-- Created with Inkscape (http://www.inkscape.org/) -->

<svg
   width="310mm"
   height="360mm"
   version="1.1"
   viewBox="0 0 310 360"
   xml:space="preserve"
   id="svg35"
   sodipodi:docname="Burns Chart 2.svg"
   inkscape:version="1.3.2 (091e20e, 2023-11-25, custom)"
   xmlns:inkscape="http://www.inkscape.org/namespaces/inkscape"
   xmlns:sodipodi="http://sodipodi.sourceforge.net/DTD/sodipodi-0.dtd"
   xmlns="http://www.w3.org/2000/svg"
   xmlns:svg="http://www.w3.org/2000/svg"
   xmlns:rdf="http://www.w3.org/1999/02/22-rdf-syntax-ns#"
   xmlns:cc="http://creativecommons.org/ns#"
   xmlns:dc="http://purl.org/dc/elements/1.1/"><title
     id="title35">Wallace Rule of Nines</title><defs
     id="defs35" /><sodipodi:namedview
     id="namedview35"
     pagecolor="#ffffff"
     bordercolor="#000000"
     borderopacity="0.25"
     inkscape:showpageshadow="2"
     inkscape:pageopacity="0.0"
     inkscape:pagecheckerboard="0"
     inkscape:deskcolor="#d1d1d1"
     inkscape:document-units="mm"
     inkscape:zoom="0.37409144"
     inkscape:cx="586.75495"
     inkscape:cy="680.31496"
     inkscape:window-width="1366"
     inkscape:window-height="705"
     inkscape:window-x="-8"
     inkscape:window-y="-8"
     inkscape:window-maximized="1"
     inkscape:current-layer="svg35" /><g
     transform="translate(3.1692)"
     id="g21"><g
       transform="translate(-154.4 3.6971)"
       id="g11"><g
         stroke="#000"
         stroke-miterlimit="2.5"
         id="g3"><path
           d="m230.23 50.585h-10.174c0.0383 4.5859-1.3849 8.2321-6.5382 11.407-7.5804 4.6708-9.7655 1.5888-16.504 5.3637-7.1799 4.0224-9.8386 16.322-12.894 25.271-2.7012 7.9136-3.1169 16.701-4.6417 24.653-0.96103 5.0114-3.7277 6.4291-4.6417 12.172-1.7566 11.036-3.522 24.117-4.5952 34.051-0.27661 2.5604-2.5916 3.4207-3.8745 4.5368-1.2186 1.0601-2.2195 1.8891-3.9986 3.6422-0.54323 0.53532-0.6719 1.6779-1.1926 2.7517-0.44354 0.91465-1.5193 1.5385-1.8071 2.3511-0.81641 2.3051-3.163 3.6622-2.5489 4.5482 0.57059 0.82329 2.962-0.16453 4.1095-0.98104 0.73525-0.52319 1.3618-1.3514 1.4568-2.2818 0.91637-0.33136 2.1079-2.7713 2.6956-2.6583 0.2556 0.0492 0.35815 4.4609-0.57415 7.5085-0.36349 1.1882-0.67013 1.7463-0.67471 2.5278-6e-3 1.0064-0.16012 3.3385-0.28049 4.41-0.17688 1.5746 0.3089 3.0319 1.2564 3.1043 0.2217 0.0169 1.3403-0.28271 1.3483-2.0176 3e-3 -0.6329 0.0793-1.1267 0.19558-1.9402 0.20135-1.4089 1.4945-4.1371 1.7256-5.3596 0.073-0.38605 0.3515-1.3762 0.61896-1.344 0.0826 0.01-0.40406 2.9015-0.68479 4.1135-0.31129 1.3439 0.1444 2.2688-3e-3 5.0324-0.12892 2.425 0.035 3.8104 1.2662 3.8576 0.38804 0.0149 1.5578 0.0126 1.5878-3.5364 9e-3 -1.045 0.36561-2.9089 0.63286-4.717 0.19628-1.328 0.21257-2.719 1.0351-4.2976-0.0453 1.6713-0.14439 1.8897-0.22861 3.5175-0.0517 0.9997-0.40445 6.6088-0.10479 4.2507 0.12642-0.99481-1.2494 4.0514 0.93922 4.1496 0.73189 0.0328 1.7038-0.88901 2.1277-7.1342 0.12408-1.8281 0.43591-4.2876 0.91977-5.6605 0.2785 1.1986 0.34294 1.7202 0.34104 2.3095-1e-3 0.41753 0.18169 1.7707-9e-3 3.1186-0.2748 1.9387-0.42344 3.2399 0.59083 3.3532 0.56222 0.0628 1.2424-0.68608 1.6571-2.0254 0.14497-0.4682 0.10129-1.1388 0.25401-1.6788 0.51646-1.826 0.18898-3.7333 0.36462-4.9573 0.23905-1.6659 0.53634-2.4919 0.76803-3.2137 0.23777-0.7407 0.55776-2.9404 0.58628-5.338 0.0285-2.3976-0.96797-2.4648-0.5835-8.9176s8.1542-18.314 9.7382-27.921c0.47262-2.8665 1.9201-5.4484 2.6611-8.237 1.2761-4.8019 1.5258-9.8628 3.0634-14.587 1.1382-3.4976 4.5216-10.065 4.5216-10.065s3.1819 11.689 3.8182 15.85c1.9844 12.977-3.5664 24.173-6.0413 38.02-1.97 11.022-4.0324 18.866-3.9032 33.362 0.15311 17.179 3.7934 32.78 4.0845 42.012 0.0368 1.1667-1.2632 5.7722-1.0497 10.691 0.21358 4.9187-0.91238 11.933-0.84669 18.338 0.154 15.018 4.941 26.356 6.8561 33.113 0.93943 3.315 2.0135 8.4987 2.0723 11.147 0.0776 3.4882-1.0545 3.8634-1.2902 5.849-0.17169 1.4466 1.4034 3.9802 1.4322 4.5296 0 0-1.0438 1.2389-1.2138 2-0.23875 1.0687 0.40999 2.0442-0.0647 2.7635-0.95041 1.44-0.88729 0.80009-1.3764 1.5759-0.50549 0.8018-3.6547 4.0599-4.223 5.2385-0.44783 0.92873-0.32767 1.6046-0.15165 2.6407 0.24437 1.4385 0.80996 2.8068 2.3579 2.3976 0.47824 0.32134 1.0649 1.0267 1.4852 0.33322 0.11699 0.79456 1.6844 0.86262 2.4438 0.51393 1.0893 0.99188 3.1024 0.85398 4.167-8e-3 1.4228 1.2236 5.6128 0.64265 5.9599-1.6887 1.3576-0.59255 1.7169-1.7586 1.4963-3.0556-0.36938-2.1718-0.33452-4.0602-0.71226-6.2306-0.29426-1.6908-0.15632-4.057 0.78349-5.4986 1.4851-2.2781 0.7763-6.1973 0.32284-6.9851s-0.21976-15.214 0.0775-23.764c0.27597-7.9383 2.6943-15.697 3.0634-23.632 0.15711-3.378-0.51187-6.7599-0.36469-10.138 0.19832-4.5522 1.2546-9.0294 1.6776-13.566 0.38891-4.1719 0.2632-8.3884 0.7898-12.545 1.8806-14.845 6.8935-16.859 8.4407-44.09m2.4e-4 0c1.5472 27.231 6.5601 29.245 8.4407 44.09 0.5266 4.1568 0.40089 8.3733 0.7898 12.545 0.42293 4.5369 1.4792 9.0141 1.6776 13.566 0.14718 3.3784-0.5218 6.7603-0.36469 10.138 0.36904 7.9345 2.7874 15.693 3.0634 23.632 0.29726 8.5507 0.53096 22.976 0.0775 23.764s-1.1623 4.707 0.32284 6.9851c0.93981 1.4416 1.0778 3.8079 0.78349 5.4986-0.37774 2.1704-0.34288 4.0588-0.71226 6.2306-0.2206 1.2971 0.13864 2.4631 1.4963 3.0556 0.34705 2.3313 4.5371 2.9123 5.9599 1.6887 1.0646 0.86198 3.0777 0.99988 4.167 8e-3 0.75931 0.34869 2.3268 0.28063 2.4438-0.51393 0.42024 0.69345 1.0069-0.0119 1.4852-0.33322 1.5479 0.40914 2.1135-0.95913 2.3579-2.3976 0.17602-1.0361 0.29618-1.7119-0.15165-2.6407-0.5683-1.1786-3.7176-4.4367-4.223-5.2385-0.48911-0.77583-0.42599-0.13593-1.3764-1.5759-0.47469-0.71923 0.17405-1.6948-0.0647-2.7635-0.17003-0.76107-1.2138-2-1.2138-2 0.0288-0.54935 1.6039-3.083 1.4322-4.5296-0.23568-1.9856-1.3678-2.3609-1.2902-5.849 0.0589-2.6479 1.1329-7.8317 2.0723-11.147 1.915-6.7575 6.7021-18.096 6.8561-33.113 0.0657-6.4056-1.0603-13.419-0.84669-18.338 0.21357-4.9187-1.0865-9.5242-1.0497-10.691 0.29104-9.2314 3.9314-24.833 4.0845-42.012 0.12921-14.497-1.9332-22.34-3.9032-33.362-2.4749-13.847-8.0257-25.043-6.0413-38.02 0.63636-4.1613 3.8182-15.85 3.8182-15.85s3.3834 6.5673 4.5216 10.065c1.5376 4.7246 1.7873 9.7856 3.0634 14.587 0.74105 2.7886 2.1885 5.3705 2.6611 8.237 1.584 9.607 9.3537 21.468 9.7382 27.921s-0.612 6.5199-0.5835 8.9176 0.34851 4.5973 0.58628 5.338c0.23169 0.72176 0.52898 1.5478 0.76803 3.2137 0.17564 1.224-0.15184 3.1313 0.36462 4.9573 0.15272 0.53996 0.10904 1.2106 0.25401 1.6788 0.41469 1.3393 1.0949 2.0882 1.6571 2.0254 1.0143-0.11329 0.86563-1.4145 0.59083-3.3532-0.19069-1.3479-8e-3 -2.7011-9e-3 -3.1186-2e-3 -0.58935 0.0625-1.111 0.34104-2.3095 0.48386 1.3728 0.79569 3.8324 0.91977 5.6605 0.42386 6.2452 1.3958 7.167 2.1277 7.1342 2.1886-0.0982 0.8128-5.1444 0.93922-4.1496 0.29966 2.3581-0.0531-3.251-0.10479-4.2507-0.0842-1.6278-0.18331-1.8462-0.22861-3.5175 0.82252 1.5787 0.83881 2.9697 1.0351 4.2976 0.26725 1.8082 0.62386 3.672 0.63286 4.717 0.03 3.549 1.1997 3.5512 1.5878 3.5364 1.2312-0.0472 1.3951-1.4326 1.2662-3.8576-0.1474-2.7636 0.30829-3.6885-3e-3 -5.0324-0.28073-1.212-0.76739-4.1035-0.68479-4.1135 0.26746-0.0322 0.54596 0.95795 0.61896 1.344 0.23116 1.2225 1.5243 3.9506 1.7256 5.3596 0.11628 0.81353 0.19258 1.3073 0.19558 1.9402 8e-3 1.7349 1.1266 2.0345 1.3483 2.0176 0.94755-0.0724 1.4333-1.5297 1.2564-3.1043-0.12037-1.0715-0.27449-3.4036-0.28049-4.41-5e-3 -0.78149-0.31122-1.3395-0.67471-2.5278-0.9323-3.0476-0.82975-7.4593-0.57415-7.5085 0.58769-0.11305 1.7793 2.3269 2.6956 2.6583 0.0951 0.9304 0.72158 1.7586 1.4568 2.2818 1.1475 0.81651 3.5389 1.8043 4.1095 0.98104 0.61409-0.88607-1.7325-2.2431-2.5489-4.5482-0.28781-0.81262-1.3636-1.4364-1.8071-2.3511-0.52068-1.0738-0.64935-2.2164-1.1926-2.7517-1.7791-1.7532-2.78-2.5821-3.9986-3.6422-1.2829-1.1161-3.5979-1.9764-3.8745-4.5368-1.0732-9.9335-2.8386-23.014-4.5952-34.051-0.91397-5.7424-3.6807-7.1602-4.6417-12.172-1.5248-7.9512-1.9404-16.739-4.6417-24.653-3.055-8.9498-5.7136-21.249-12.894-25.271-6.7382-3.775-8.9234-0.69292-16.504-5.3637-5.1533-3.1753-6.5765-6.8215-6.5382-11.407h-10.174"
           fill="#fff"
           style="paint-order:normal"
           id="path1" /><path
           d="m230.23 55.7c-3.9137 0-7.3233-2.6443-10.174-5.1153-0.86087-0.7462-1.1973-4.0335-1.9143-4.8656-0.7474 0.2234-2.4158-0.19574-2.946-1.32-0.73606-1.5608-2.2567-4.2932-2.1936-7.2658 0.0288-1.3549 0.96098-3.1117 2.9085-3.1043-0.28331-9.9132 5.8165-16.699 14.317-16.7 8.501 1.77e-4 14.601 6.7855 14.319 16.699 1.9475-0.0077 2.8799 1.749 2.9088 3.104 0.0634 2.9726-1.4569 5.7052-2.1928 7.266-0.53009 1.1243-2.1985 1.5436-2.9459 1.3203-0.71691 0.83223-1.053 4.1196-1.9138 4.8658-2.8505 2.4713-6.2598 5.1159-10.173 5.1163-3.9137-4.08e-4 -7.323-2.645-10.173-5.1163-0.86079-0.74629-1.1969-4.0336-1.9138-4.8658-0.74742 0.22332-2.4158-0.19599-2.9459-1.3203-0.7359-1.5609-2.2562-4.2935-2.1928-7.266 0.0289-1.3549 0.9613-3.1117 2.9088-3.104-0.28228-9.9132 5.8182-16.699 14.319-16.699 8.501 0.0011 14.601 6.7871 14.317 16.7 1.9475-0.0075 2.8797 1.7493 2.9085 3.1043 0.0631 2.9726-1.4575 5.705-2.1936 7.2658-0.53021 1.1243-2.1986 1.5434-2.946 1.32-0.717 0.83215-1.0534 4.1194-1.9143 4.8656-2.8507 2.471-6.2603 5.1153-10.174 5.1153"
           fill="#fff"
           style="paint-order:normal"
           id="path2" /><path
           d="m197.19 161.26 20.843 7.5376m24.402 0 20.843-7.5376"
           fill="none"
           stroke-dasharray="2, 2"
           style="paint-order:stroke markers fill"
           id="path3" /></g><path
         transform="translate(.31703 .85187)"
         d="m164.3 174.95c1.1586 0.68522 2.4517 0.9353 3.5988 0.87183 0.51381-0.0269 0.9879-0.12367 1.414-0.27432 1.553-0.52337 2.6146-1.765 2.9393-2.1439 0.47089-0.54955 0.62551-0.81272 0.62551-0.81272s-0.28439 0.11109-0.90205 0.49144c-0.29786 0.18342-1.8535 1.2752-2.9506 1.5419-0.3509 0.10519-0.7438 0.17329-1.1814 0.19908-0.96681 0.0535-2.0593-0.1573-3.0346-0.73409zm131.23 0-0.50904-0.86074c-0.97529 0.57679-2.0678 0.78759-3.0346 0.73409-0.4376-0.0258-0.8305-0.0939-1.1814-0.19908-1.0971-0.26673-2.6527-1.3585-2.9506-1.5419-0.61766-0.38035-0.90205-0.49144-0.90205-0.49144s0.15462 0.26317 0.62551 0.81272c0.32469 0.37892 1.3863 1.6205 2.9393 2.1439 0.42607 0.15065 0.90016 0.24742 1.414 0.27432 1.1471 0.0635 2.4402-0.18661 3.5988-0.87183z"
         style="paint-order:stroke markers fill"
         id="path4" /><path
         d="m200.14 65.9v37.817m60.182 0v-37.817"
         fill="none"
         stroke="#000"
         stroke-dasharray="2, 2"
         stroke-miterlimit="2.5"
         style="paint-order:normal"
         id="path5" /><g
         id="g10"><path
           d="m205.7 316.89c0.12746-0.20587 0.25613-0.3839 0.39229-0.56684 0.69229-0.92547 0.66602-2.0924 0.66602-2.0924s-0.89414 0.72002-1.4682 1.4953c-0.14139 0.18995-0.29026 0.39509-0.44036 0.63752zm49.067 0 0.85024-0.5264c-0.1501-0.24243-0.29897-0.44757-0.44036-0.63752-0.57405-0.77531-1.4682-1.4953-1.4682-1.4953s-0.0263 1.1669 0.66602 2.0924c0.13616 0.18294 0.26483 0.36097 0.39229 0.56684z"
           style="paint-order:stroke markers fill"
           id="path6" /><path
           d="m200 332.86c0.0256 0.34182 0.54128 0.67576 0.54128 0.67576s0.48418-0.37985 0.45587-0.75118c-0.0512-0.6771-0.11548-1.3895-0.0562-1.905 0.0104-0.0905 0.0346-0.19705 0.0728-0.32077 0.10421-0.34581 0.17091-0.75139 0.17826-1.1064 7e-3 -0.34618-0.0507-0.58103-0.0507-0.58103s-0.1808 0.15974-0.41074 0.38799c-0.23258 0.23088-0.53134 0.55636-0.67225 1.0044-0.0499 0.16153-0.0913 0.33154-0.11082 0.50162-0.0697 0.60629 2e-3 1.4225 0.0525 2.0947zm60.453 0c0.0505-0.67219 0.1222-1.4884 0.0525-2.0947-0.0195-0.17008-0.0609-0.34009-0.11082-0.50162-0.14091-0.44808-0.43967-0.77356-0.67225-1.0044-0.22994-0.22825-0.41074-0.38799-0.41074-0.38799s-0.0577 0.23485-0.0507 0.58103c7e-3 0.35505 0.074 0.76063 0.17826 1.1064 0.0382 0.12372 0.0624 0.23027 0.0728 0.32077 0.0593 0.51556-5e-3 1.228-0.0562 1.905-0.0283 0.37133 0.45587 0.75118 0.45587 0.75118s0.51568-0.33394 0.54128-0.67576z"
           style="paint-order:stroke markers fill"
           id="path7" /><path
           transform="translate(1.5435 .56127)"
           d="m200.09 332.86c-0.0353 0.33886 0.4724 0.62359 0.4724 0.62359s0.49993-0.28863 0.52259-0.5236c0.0612-0.60891 0.22799-1.3722 0.4154-1.8981 0.0472-0.13244 0.11298-0.27256 0.19389-0.42214 0.20505-0.37188 0.38314-0.7938 0.45934-1.2092 0.0718-0.39158 0.0172-0.65134 0.0172-0.65134s-0.18604 0.18769-0.4519 0.40761c-0.2529 0.2092-0.6604 0.51968-0.90421 0.97713-0.0963 0.17802-0.18694 0.3676-0.25631 0.56226-0.21667 0.60812-0.39998 1.4529-0.4684 2.1338zm57.187 0c-0.0684-0.6809-0.25173-1.5257-0.4684-2.1338-0.0694-0.19466-0.16001-0.38424-0.25631-0.56226-0.24381-0.45745-0.65131-0.76793-0.90421-0.97713-0.26586-0.21992-0.4519-0.40761-0.4519-0.40761s-0.0546 0.25976 0.0172 0.65134c0.0762 0.41537 0.25429 0.83729 0.45934 1.2092 0.0809 0.14958 0.14669 0.2897 0.19389 0.42214 0.18741 0.52599 0.3542 1.2892 0.4154 1.8981 0.0227 0.23497 0.52259 0.5236 0.52259 0.5236s0.5077-0.28473 0.4724-0.62359z"
           style="paint-order:stroke markers fill"
           id="path8" /><path
           transform="translate(3.9578 .892)"
           d="m200.12 332.68c-2e-3 0.45467 0.54227 0.80305 0.54227 0.80305s0.45522-0.44925 0.45772-0.79719c4e-3 -0.61147 0.11871-1.0078 0.3149-1.5584 0.0539-0.15126 0.12503-0.32609 0.20942-0.52225 0.21793-0.50321 0.35782-1.038 0.4135-1.503 0.0537-0.44877 0.0144-0.75348 0.0144-0.75348s-0.20036 0.23225-0.4743 0.55768c-0.2645 0.31423-0.64615 0.77485-0.87225 1.3036-0.088 0.20444-0.17014 0.40593-0.23279 0.58176-0.20795 0.58355-0.36821 1.0857-0.37291 1.8882zm52.299 0h4e-5c-5e-3 -0.80251-0.16496-1.3046-0.37291-1.8882-0.0626-0.17583-0.14479-0.37732-0.23279-0.58176-0.2261-0.5288-0.60775-0.98942-0.87225-1.3036-0.27394-0.32543-0.4743-0.55768-0.4743-0.55768s-0.0393 0.30471 0.0144 0.75348c0.0557 0.46498 0.19557 0.99981 0.4135 1.503 0.0844 0.19616 0.15552 0.37099 0.20942 0.52225 0.19619 0.55056 0.3109 0.94693 0.3149 1.5584 2e-3 0.34794 0.45772 0.79719 0.45772 0.79719s0.54427-0.34838 0.54227-0.80305z"
           style="paint-order:stroke markers fill"
           id="path9" /><path
           d="m209.51 330.81c0.46341-0.36212 0.74703-0.87239 0.85041-1.3197 0.10009-0.43301 0.0153-0.71468 0.0153-0.71468s-0.16838 0.23994-0.44046 0.47572c-0.27526 0.23853-0.67745 0.47052-1.0506 0.7783-0.14899 0.11939-0.31153 0.26863-0.44438 0.47581-0.43456 0.67769-0.61771 1.6634-0.56027 2.4788 0.033 0.46845 0.35953 1.1258 0.47682 1.3545l3e-3 6e-3c0.0983-0.0213 0.26554-0.0804 0.36181-0.10772 0.13737-0.039 0.12582-0.039 0.12582-0.039s-7e-3 9e-3 0.10197-0.0836c0.0763-0.065 0.21951-0.17016 0.29416-0.23768l3e-3 6e-3c-0.1087-0.21197-0.35212-0.72722-0.36909-0.96842-0.0469-0.66539 0.0971-1.3894 0.40454-1.8688 0.0504-0.0785 0.12055-0.1492 0.22792-0.23525zm41.442 0 2e-5 3.4e-4c0.10737 0.0861 0.17752 0.15675 0.22792 0.23525 0.30744 0.47942 0.45144 1.2034 0.40454 1.8688-0.017 0.2412-0.26039 0.75645-0.36909 0.96842l3e-3 -6e-3c0.0746 0.0675 0.21786 0.17268 0.29416 0.23768 0.10897 0.0926 0.10197 0.0836 0.10197 0.0836s-0.0115 0 0.12582 0.039c0.0963 0.0273 0.26351 0.0864 0.36181 0.10772l3e-3 -6e-3c0.11729-0.2287 0.44382-0.88608 0.47682-1.3545 0.0574-0.81536-0.12571-1.8011-0.56027-2.4788-0.13285-0.20718-0.29539-0.35642-0.44438-0.47581-0.37312-0.30778-0.77531-0.53977-1.0506-0.7783-0.27208-0.23578-0.44046-0.47572-0.44046-0.47572s-0.0848 0.28167 0.0153 0.71468c0.10338 0.4473 0.387 0.95757 0.85041 1.3197z"
           style="paint-order:stroke markers fill"
           id="path10" /></g></g><g
       transform="translate(-154.4 3.6971)"
       fill="none"
       stroke-miterlimit="2.5"
       id="g20"><ellipse
         transform="rotate(90)"
         cx="173.04"
         cy="-230.23"
         rx="13"
         ry="13"
         fill="none"
         stroke="#000"
         stroke-dasharray="1.9999, 1.9999"
         stroke-width=".99995"
         style="paint-order:normal"
         id="ellipse11" /><text
         x="223.13039"
         y="175.94597"
         fill="#000000"
         font-family="Sans"
         font-size="8px"
         stroke="#000000"
         stroke-width="0"
         style="paint-order:normal"
         xml:space="preserve"
         id="text11"><tspan
           x="223.13039"
           y="175.94597"
           fill="#000000"
           font-size="8px"
           stroke-width="0"
           id="tspan11">1%</tspan></text><path
         d="m203.62 118h53.225"
         fill="none"
         stroke="#000"
         stroke-dasharray="1.9999, 1.9999"
         style="paint-order:stroke markers fill"
         id="path11" /><g
         fill="#000000"
         font-family="Sans"
         stroke="#000000"
         stroke-width="0"
         id="g19"><text
           x="223.45265"
           y="91.916756"
           font-size="8px"
           style="paint-order:normal"
           xml:space="preserve"
           id="text12"><tspan
             x="223.45265"
             y="91.916756"
             fill="#000000"
             font-size="8px"
             stroke-width="0"
             id="tspan12">9%</tspan></text><text
           transform="rotate(-70)"
           x="-68.213448"
           y="220.06389"
           font-size="8px"
           style="paint-order:normal"
           xml:space="preserve"
           id="text13"><tspan
             x="-68.213448"
             y="220.06389"
             fill="#000000"
             font-size="8px"
             stroke-width="0"
             id="tspan13">4.5%</tspan></text><text
           transform="matrix(.34202 .93971 -.93968 .34203 0 0)"
           x="204.21928"
           y="-212.5475"
           font-size="7.9999px"
           style="paint-order:normal"
           xml:space="preserve"
           id="text14"><tspan
             x="204.21928"
             y="-212.5475"
             fill="#000000"
             font-size="7.9999px"
             stroke-width="0"
             id="tspan14">4.5%</tspan></text><g
           font-size="8px"
           id="g18"><text
             x="223.45265"
             y="141.84071"
             style="paint-order:normal"
             xml:space="preserve"
             id="text15"><tspan
               x="223.45265"
               y="141.84071"
               fill="#000000"
               font-size="8px"
               stroke-width="0"
               id="tspan15">9%</tspan></text><text
             x="219.52492"
             y="39.416977"
             style="paint-order:normal"
             xml:space="preserve"
             id="text16"><tspan
               x="219.52492"
               y="39.416977"
               fill="#000000"
               font-size="8px"
               stroke-width="0"
               id="tspan16">4.5%</tspan></text><text
             x="203.55942"
             y="250.58348"
             style="paint-order:normal"
             xml:space="preserve"
             id="text17"><tspan
               x="203.55942"
               y="250.58348"
               fill="#000000"
               font-size="8px"
               stroke-width="0"
               id="tspan17">9%</tspan></text><text
             x="244.3047"
             y="250.58348"
             style="paint-order:normal"
             xml:space="preserve"
             id="text18"><tspan
               x="244.3047"
               y="250.58348"
               fill="#000000"
               font-size="8px"
               stroke-width="0"
               id="tspan18">9%</tspan></text></g></g><path
         transform="translate(148.34)"
         d="m66.419 61.303s1.9272 3.7285 3.5203 5c3.4282 2.7359 7.7852 5 12.171 5 4.3862 2.5e-5 8.7435-2.2639 12.172-5 1.5931-1.2714 3.5199-5 3.5199-5"
         fill="none"
         stroke="#000"
         stroke-dasharray="2, 2"
         style="paint-order:stroke markers fill"
         id="path19" /></g></g><g
     transform="translate(6.8306)"
     id="g35"><g
       transform="translate(-6.0598 3.6971)"
       fill="none"
       id="g34"><g
         stroke="#000"
         stroke-miterlimit="2.5"
         id="g23"><path
           transform="translate(-30.69 -3.6971)"
           d="m260.92 21.026c-8.502-1e-6 -14.603 6.7863-14.32 16.7-1.9475-0.0075-2.8796 1.7493-2.9084 3.1042-0.0631 2.9726 1.4576 5.7049 2.1937 7.2657 0.53021 1.1243 2.1987 1.5437 2.9461 1.3203 0.717 0.83215 1.0532 4.1191 1.9141 4.8653 0.0383 4.5859-1.3848 8.2323-6.5381 11.408-7.5804 4.6708-9.7657 1.5885-16.504 5.3635-7.1799 4.0224-9.8388 16.322-12.894 25.272-2.7012 7.9136-3.1168 16.701-4.6416 24.652-0.96103 5.0114-3.7276 6.4289-4.6416 12.171-1.7566 11.036-3.5219 24.118-4.5951 34.051-0.27661 2.5604-2.5918 3.4206-3.8747 4.5367-1.2186 1.0601-2.2196 1.889-3.9987 3.6422-0.54323 0.53532-0.67201 1.678-1.1927 2.7518-0.44354 0.91465-1.5188 1.5387-1.8066 2.3513-0.8164 2.3051-3.1633 3.662-2.5492 4.548 0.57059 0.82329 2.9624-0.16431 4.1098-0.98082 0.73525-0.52319 1.3617-1.3516 1.4568-2.282 0.91637-0.33136 2.1078-2.7713 2.6954-2.6582 0.2556 0.0492 0.35818 4.461-0.57412 7.5086-0.36349 1.1882-0.67032 1.7465-0.6749 2.528-6e-3 1.0064-0.15971 3.3381-0.28008 4.4096-0.17688 1.5746 0.3087 3.0324 1.2562 3.1047 0.2217 0.0169 1.3402-0.28305 1.3482-2.018 3e-3 -0.6329 0.0796-1.1264 0.19585-1.9399 0.20135-1.4089 1.4943-4.1374 1.7255-5.3599 0.073-0.38605 0.35162-1.3764 0.61908-1.3441 0.0826 0.01-0.4045 2.902-0.68523 4.114-0.31129 1.3439 0.14482 2.2686-3e-3 5.0322-0.12892 2.425 0.0348 3.8105 1.2661 3.8576 0.38804 0.0149 1.5575 0.0127 1.5875-3.5362 9e-3 -1.045 0.36579-2.9088 0.63304-4.717 0.19628-1.328 0.21256-2.7192 1.0351-4.2979-0.0453 1.6713-0.14419 1.8898-0.22841 3.5176-0.0365 0.70642-0.21473 3.6181-0.21549 4.4902-0.23114 1.019-0.58224 3.8371 1.0501 3.9104 0.73189 0.0328 1.7037-0.88923 2.1275-7.1344 0.12408-1.8281 0.43598-4.2878 0.91984-5.6606 0.2785 1.1986 0.34297 1.7206 0.34107 2.3099-1e-3 0.41753 0.18138 1.7708-9e-3 3.1187-0.27479 1.9387-0.42309 3.2395 0.59118 3.3528 0.56222 0.0628 1.2421-0.68589 1.6568-2.0252 0.14497-0.4682 0.10153-1.139 0.25425-1.679 0.51646-1.826 0.18868-3.7333 0.36432-4.9573 0.23905-1.6659 0.53674-2.4915 0.76842-3.2132 0.23777-0.7407 0.5575-2.9406 0.58602-5.3382 0.0285-2.3976-0.9679-2.4651-0.58343-8.9178s8.1544-18.313 9.7384-27.92c0.47262-2.8665 1.9198-5.4486 2.6608-8.2372 1.2761-4.8019 1.5258-9.8626 3.0634-14.587 1.1382-3.4976 4.5217-10.065 4.5217-10.065s3.182 11.688 3.8184 15.85c1.9844 12.977-3.5666 24.174-6.0415 38.02-1.97 11.022-4.0323 18.865-3.9031 33.362 0.15311 17.179 3.7935 32.781 4.0845 42.012 0.0368 1.1667-1.2631 5.7721-1.0496 10.691 0.21358 4.9187-0.91266 11.932-0.84697 18.338 0.154 15.018 4.9414 26.356 6.8564 33.114 0.93943 3.315 1.7141 7.565 1.6046 10.211-0.10954 2.6463 0.1132 3.6099 0.14211 5.0664 0.0289 1.4565-0.57413 2.4087-0.36018 4.9155 0.0582 0.68176 0.0954 2.2833-1.5978 3.3667-0.43862 0.28063-1.3997 0.44559-2.1921 0.6537-0.54311 0.14264-0.94111 0.83495-1.1028 1.0692-1.0513 1.5232-1.2199 3.708-0.25425 4.376 0.31554 0.21829 3.5292 2.2638 3.7202 2.4298 0.94456 0.82073 1.1478 1.9961 1.5901 2.326 3.599 2.6848 9.501 1.936 10.906-0.84388 0.40109-0.79341-0.74175-3.9801 0.71986-6.226 1.0978-1.6869-0.38226-3.6599-0.0103-4.5098 1.008-2.3032 1.279-7.8561 0.54054-9.3333-1.5686-7.4943-0.43732-13.193-0.14005-21.743 0.27597-7.9383 2.6943-15.697 3.0634-23.632 0.15711-3.378-0.51201-6.76-0.36483-10.138 0.19832-4.5522 1.2545-9.0292 1.6774-13.566 0.38891-4.1719 0.26354-8.3887 0.79014-12.545 1.8806-14.845 6.8936-16.859 8.4408-44.09m1.4e-4 0c1.5472 27.231 6.5602 29.245 8.4408 44.09 0.5266 4.1568 0.40123 8.3736 0.79014 12.545 0.42293 4.5369 1.4791 9.0139 1.6774 13.566 0.14718 3.3784-0.52194 6.7604-0.36483 10.138 0.36904 7.9345 2.7874 15.693 3.0634 23.632 0.29727 8.5507 1.4285 14.249-0.14005 21.743-0.73846 1.4772-0.4675 7.0301 0.54054 9.3333 0.37196 0.84987-1.1082 2.8229-0.0103 4.5098 1.4616 2.2458 0.31877 5.4326 0.71986 6.226 1.4053 2.7798 7.3073 3.5286 10.906 0.84388 0.44225-0.3299 0.64552-1.5052 1.5901-2.326 0.19101-0.16598 3.4046-2.2115 3.7202-2.4298 0.96562-0.66801 0.79707-2.8527-0.25425-4.376-0.16167-0.23424-0.55967-0.92655-1.1028-1.0692-0.79244-0.20811-1.7535-0.37307-2.1921-0.6537-1.6932-1.0834-1.656-2.685-1.5978-3.3667 0.21395-2.5068-0.38908-3.459-0.36018-4.9155s0.25165-2.4201 0.14211-5.0664c-0.10954-2.6463 0.66512-6.8963 1.6046-10.211 1.915-6.7575 6.7024-18.096 6.8564-33.114 0.0657-6.4055-1.0606-13.419-0.84697-18.338 0.21357-4.9187-1.0864-9.5241-1.0496-10.691 0.29104-9.2314 3.9314-24.833 4.0845-42.012 0.12921-14.497-1.9331-22.34-3.9031-33.362-2.4749-13.847-8.0259-25.044-6.0415-38.02 0.63636-4.1613 3.8184-15.85 3.8184-15.85s3.3835 6.5674 4.5217 10.065c1.5376 4.7246 1.7873 9.7854 3.0634 14.587 0.74105 2.7886 2.1882 5.3707 2.6608 8.2372 1.584 9.607 9.354 21.468 9.7384 27.92s-0.61193 6.5202-0.58343 8.9178 0.34825 4.5975 0.58602 5.3382c0.23168 0.72176 0.52937 1.5473 0.76842 3.2132 0.17564 1.224-0.15214 3.1314 0.36432 4.9573 0.15272 0.53996 0.10928 1.2108 0.25425 1.679 0.41469 1.3393 1.0945 2.088 1.6568 2.0252 1.0143-0.11329 0.86597-1.414 0.59118-3.3528-0.19038-1.3479-8e-3 -2.7011-9e-3 -3.1187-2e-3 -0.58935 0.0626-1.1114 0.34107-2.3099 0.48386 1.3728 0.79576 3.8325 0.91984 5.6606 0.42386 6.2452 1.3956 7.1672 2.1275 7.1344 1.6323-0.0732 1.2812-2.8914 1.0501-3.9104-7.6e-4 -0.87211-0.17899-3.7838-0.21549-4.4902-0.0842-1.6278-0.18311-1.8463-0.22841-3.5176 0.82252 1.5787 0.8388 2.97 1.0351 4.2979 0.26725 1.8082 0.62404 3.672 0.63304 4.717 0.03 3.5489 1.1995 3.5511 1.5875 3.5362 1.2313-0.0472 1.395-1.4327 1.2661-3.8576-0.14782-2.7636 0.30829-3.6883-3e-3 -5.0322-0.28073-1.212-0.76783-4.104-0.68523-4.114 0.26746-0.0322 0.54608 0.95806 0.61908 1.3441 0.23116 1.2225 1.5241 3.951 1.7255 5.3599 0.11625 0.81353 0.19285 1.307 0.19585 1.9399 8e-3 1.7349 1.1265 2.0349 1.3482 2.018 0.94755-0.0724 1.4331-1.5301 1.2562-3.1047-0.12037-1.0715-0.27408-3.4032-0.28008-4.4096-5e-3 -0.78149-0.31141-1.3398-0.6749-2.528-0.9323-3.0476-0.82972-7.4594-0.57412-7.5086 0.58769-0.11305 1.7791 2.3269 2.6954 2.6582 0.0951 0.9304 0.72151 1.7588 1.4568 2.282 1.1475 0.81651 3.5392 1.8041 4.1098 0.98082 0.61409-0.88607-1.7328-2.2429-2.5492-4.548-0.28781-0.81262-1.3631-1.4366-1.8066-2.3513-0.52068-1.0738-0.64946-2.2164-1.1927-2.7518-1.7791-1.7532-2.7801-2.582-3.9987-3.6422-1.2829-1.1161-3.5981-1.9763-3.8747-4.5367-1.0731-9.9335-2.8385-23.015-4.5951-34.051-0.91397-5.7424-3.6806-7.16-4.6416-12.171-1.5248-7.9512-1.9403-16.739-4.6416-24.652-3.055-8.9498-5.7138-21.249-12.894-25.272-6.7382-3.775-8.9235-0.69269-16.504-5.3635-5.1533-3.1753-6.5764-6.8217-6.5381-11.408 0.86087-0.7462 1.1971-4.0332 1.9141-4.8653 0.7474 0.2234 2.4159-0.19605 2.9461-1.3203 0.73606-1.5608 2.2568-4.2931 2.1937-7.2657-0.0288-1.3549-0.96082-3.1117-2.9084-3.1042 0.28333-9.914-5.8176-16.7-14.32-16.7"
           fill="#fff"
           style="paint-order:normal"
           id="path21" /><path
           d="m200.14 65.9v37.817m60.182 0v-37.817"
           fill="none"
           stroke-dasharray="2, 2"
           style="paint-order:normal"
           id="path22" /><path
           d="m212.67 192.85c5.1524 0.48999 14.397-0.42072 17.557-9.9574m6e-4 0c3.1603 9.5367 12.404 10.447 17.557 9.9574"
           fill="none"
           style="paint-order:stroke markers fill"
           id="path23" /></g><path
         d="m210.73 316.36c0.038-1.012-0.12671-1.9758-0.31035-2.7032-0.0863-0.34182-0.17258-0.61584-0.24029-0.8127-0.0333-0.0967-0.0607-0.17072-0.081-0.22377-0.0216-0.056-0.0336-0.0854-0.0336-0.0854s-4e-3 0.0325-0.0104 0.0908c-5e-3 0.0443-0.0167 0.14614-0.0267 0.23524-0.0196 0.17404-0.0577 0.51845-0.0903 0.83128-0.0695 0.667-0.17288 1.7356-0.20668 2.6302-0.0488 1.296-0.22423 2.7126-0.65454 3.9262-0.23463 0.6617-0.63509 1.5452-0.99686 2.4021-0.0754 0.17865-0.13878 0.36302-0.19089 0.54776-0.14627 0.5124-0.17213 0.99986-0.1598 1.3668 6e-3 0.18265 0.0213 0.33021 0.0357 0.43677 7e-3 0.0981 0.0249 0.16567 0.0274 0.17724 7.1e-4 1e-3 6.1e-4 1e-3 6.1e-4 1e-3s-1.5e-4 1.4e-4 9.4e-4 -8.2e-4c6e-3 -0.01 0.0466-0.0658 0.0919-0.15218 0.0467-0.0758 0.14046-0.22859 0.22298-0.36504 0.16752-0.27688 0.43394-0.72428 0.64688-1.115 0.0877-0.16261 0.17171-0.33278 0.24557-0.50775 0.35819-0.84839 0.77061-1.7589 1.0181-2.4569 0.47669-1.3443 0.66042-2.8721 0.71133-4.2227zm39.006 0v-5e-5c0.0509 1.3506 0.23464 2.8784 0.71133 4.2227 0.24749 0.69798 0.65991 1.6085 1.0181 2.4569 0.0739 0.17497 0.15787 0.34514 0.24557 0.50775 0.21294 0.39068 0.47936 0.83808 0.64688 1.115 0.0825 0.13645 0.17628 0.28924 0.22298 0.36504 0.0453 0.0864 0.0859 0.14218 0.0919 0.15218 1e-3 9.6e-4 9.4e-4 8.2e-4 9.4e-4 8.2e-4s-1e-4 0 6.1e-4 -1e-3c2e-3 -0.0116 0.0204-0.0791 0.0274-0.17724 0.0144-0.10656 0.0297-0.25412 0.0357-0.43677 0.0123-0.36698-0.0135-0.85444-0.1598-1.3668-0.0521-0.18474-0.11549-0.36911-0.19089-0.54776-0.36177-0.85686-0.76223-1.7404-0.99686-2.4021-0.43031-1.2136-0.60574-2.6302-0.65454-3.9262-0.0338-0.89454-0.13718-1.9632-0.20668-2.6302-0.0326-0.31283-0.0707-0.65724-0.0903-0.83128-0.01-0.0891-0.0217-0.19094-0.0267-0.23524-6e-3 -0.0583-0.0104-0.0908-0.0104-0.0908s-0.012 0.0294-0.0336 0.0854c-0.0203 0.053-0.0477 0.12707-0.081 0.22377-0.0677 0.19686-0.15399 0.47088-0.24029 0.8127-0.18364 0.72741-0.34835 1.6912-0.31035 2.7032z"
         fill="#000"
         style="paint-order:stroke markers fill"
         id="path24" /><path
         d="m195.13 173.71c1.2355 6.0806 6.482 18.088 17.544 19.14m35.114 0c11.062-1.052 16.308-13.06 17.544-19.14"
         fill="none"
         stroke="#000"
         stroke-dasharray="2, 2"
         stroke-miterlimit="2.5"
         style="paint-order:stroke markers fill"
         id="path25" /><path
         d="m213.95 317.81c-0.14334-1.7037-0.78398-3.3655-0.78398-3.3655s-0.35396 1.7455-0.21061 3.4492l5e-3 0.047c0.0851 0.47115 0.19421 0.96868 0.33409 1.477 0.22949 0.83382 0.8709 3.325 1.2908 4.3677 0.0689 0.17118 0.13259 0.35759 0.19084 0.54956l-9e-3 -0.0337 0.3756 1.6387c0.16192-0.0308 0.32547-0.062 0.49066-0.0935-3e-3 4.9e-4 -0.48582 0.0926-0.48837 0.0931 0.52728-0.67202 0.72374-1.3037 0.59624-1.8613l-9e-3 -0.0337c-0.0644-0.21223-0.13784-0.42834-0.22013-0.63271-0.38137-0.94713-1.0207-3.411-1.2542-4.2595-0.13104-0.47614-0.23373-0.94376-0.31416-1.3893zm32.561 0 6e-3 -0.047c-0.0804 0.4455-0.18312 0.91312-0.31416 1.3893-0.23353 0.84855-0.87284 3.3124-1.2542 4.2595-0.0823 0.20437-0.15573 0.42048-0.22013 0.63271l-9e-3 0.0337c-0.1275 0.55755 0.069 1.1893 0.59624 1.8613-3e-3 -5e-4 -0.48537-0.0926-0.48837-0.0931 0.16519 0.0315 0.32874 0.0627 0.49066 0.0935l0.3756-1.6387-9e-3 0.0337c0.0582-0.19197 0.12194-0.37838 0.19084-0.54956 0.41985-1.0427 1.0613-3.5339 1.2908-4.3677 0.13988-0.50827 0.24899-1.0058 0.33409-1.477l5e-3 -0.047c0.14335-1.7037-0.21061-3.4492-0.21061-3.4492s-0.64064 1.6618-0.78398 3.3655z"
         fill="#000"
         style="paint-order:stroke markers fill"
         id="path26" /><path
         d="m203.62 118h53.225"
         fill="none"
         stroke="#000"
         stroke-dasharray="1.9999, 1.9999"
         stroke-miterlimit="2.5"
         style="paint-order:stroke markers fill"
         id="path27" /><g
         fill="#000000"
         font-family="Sans"
         font-size="8px"
         stroke="#000000"
         stroke-miterlimit="2.5"
         stroke-width="0"
         id="g33"><text
           transform="rotate(-70)"
           x="-68.213448"
           y="220.06389"
           style="paint-order:normal"
           xml:space="preserve"
           id="text27"><tspan
             x="-68.213448"
             y="220.06389"
             fill="#000000"
             font-size="8px"
             stroke-width="0"
             id="tspan27">4.5%</tspan></text><text
           transform="rotate(70)"
           x="204.21959"
           y="-212.5432"
           style="paint-order:normal"
           xml:space="preserve"
           id="text28"><tspan
             x="204.21959"
             y="-212.5432"
             fill="#000000"
             font-size="8px"
             stroke-width="0"
             id="tspan28">4.5%</tspan></text><text
           x="223.45265"
           y="91.916756"
           style="paint-order:normal"
           xml:space="preserve"
           id="text29"><tspan
             x="223.45265"
             y="91.916756"
             fill="#000000"
             font-size="8px"
             stroke-width="0"
             id="tspan29">9%</tspan></text><text
           x="223.45265"
           y="141.84071"
           style="paint-order:normal"
           xml:space="preserve"
           id="text30"><tspan
             x="223.45265"
             y="141.84071"
             fill="#000000"
             font-size="8px"
             stroke-width="0"
             id="tspan30">9%</tspan></text><text
           x="219.52492"
           y="39.416977"
           style="paint-order:normal"
           xml:space="preserve"
           id="text31"><tspan
             x="219.52492"
             y="39.416977"
             fill="#000000"
             font-size="8px"
             stroke-width="0"
             id="tspan31">4.5%</tspan></text><text
           x="203.55942"
           y="250.58348"
           style="paint-order:normal"
           xml:space="preserve"
           id="text32"><tspan
             x="203.55942"
             y="250.58348"
             fill="#000000"
             font-size="8px"
             stroke-width="0"
             id="tspan32">9%</tspan></text><text
           x="244.3047"
           y="250.58348"
           style="paint-order:normal"
           xml:space="preserve"
           id="text33"><tspan
             x="244.3047"
             y="250.58348"
             fill="#000000"
             font-size="8px"
             stroke-width="0"
             id="tspan33">9%</tspan></text></g><path
         d="m214.54 61.303s1.9272 3.7285 3.5203 5c3.4282 2.7359 7.7852 5 12.171 5 4.3862 2.5e-5 8.7435-2.2639 12.172-5 1.5931-1.2714 3.5199-5 3.5199-5"
         fill="none"
         stroke="#000"
         stroke-dasharray="2, 2"
         stroke-miterlimit="2.5"
         style="paint-order:stroke markers fill"
         id="path33" /></g></g><metadata
     id="metadata35"><rdf:RDF><cc:Work
         rdf:about=""><dc:title>Wallace Rule of Nines</dc:title><dc:creator><cc:Agent><dc:title>Reilly Taylor</dc:title></cc:Agent></dc:creator><dc:description>A total burns surface area estimation model, approximating percentage based on multiples of 9.</dc:description><dc:language>Languageless/English (Metadata)</dc:language><dc:subject><rdf:Bag><rdf:li>Burns</rdf:li></rdf:Bag></dc:subject><cc:license
           rdf:resource="http://creativecommons.org/licenses/by-nc/4.0/" /></cc:Work><cc:License
         rdf:about="http://creativecommons.org/licenses/by-nc/4.0/"><cc:permits
           rdf:resource="http://creativecommons.org/ns#Reproduction" /><cc:permits
           rdf:resource="http://creativecommons.org/ns#Distribution" /><cc:requires
           rdf:resource="http://creativecommons.org/ns#Notice" /><cc:requires
           rdf:resource="http://creativecommons.org/ns#Attribution" /><cc:prohibits
           rdf:resource="http://creativecommons.org/ns#CommercialUse" /><cc:permits
           rdf:resource="http://creativecommons.org/ns#DerivativeWorks" /></cc:License></rdf:RDF></metadata></svg>
